<?xml version="1.0" standalone="no"?>
<!DOCTYPE svg PUBLIC "-//W3C//DTD SVG 20010904//EN"
 "http://www.w3.org/TR/2001/REC-SVG-20010904/DTD/svg10.dtd">
<svg version="1.0" xmlns="http://www.w3.org/2000/svg"
 width="50.000000pt" height="45.000000pt" viewBox="0 0 50.000000 45.000000"
 preserveAspectRatio="xMidYMid meet">

<g transform="translate(0.000000,45.000000) scale(0.100000,-0.100000)"
fill="#000000" stroke="none">
<path d="M134 417 c-2 -7 -3 -100 -2 -207 3 -187 4 -195 23 -195 18 0 20 8 23
74 l3 74 52 -9 c60 -10 244 -10 254 -1 3 4 1 31 -6 61 -10 44 -9 64 2 109 l14
55 -83 -6 c-111 -6 -230 13 -237 39 -6 21 -35 26 -43 6z m36 -11 c0 -8 -7 -16
-15 -20 -10 -4 -15 1 -15 14 0 11 7 20 15 20 8 0 15 -6 15 -14z m130 -96 c0
-5 -13 -10 -30 -10 -16 0 -30 -4 -30 -10 0 -5 10 -10 23 -10 12 0 32 -3 45 -6
19 -5 22 -3 20 17 -3 20 2 24 22 24 17 0 25 -6 25 -17 0 -9 4 -20 8 -24 4 -4
7 5 7 19 0 28 14 37 22 15 7 -21 -3 -98 -13 -98 -5 0 -9 5 -9 10 0 6 -13 10
-30 10 -16 0 -30 5 -30 10 0 6 9 10 21 10 11 0 17 5 14 10 -4 7 -12 7 -24 0
-10 -5 -21 -7 -24 -4 -3 3 -14 1 -24 -5 -17 -10 -16 -10 5 -11 12 0 22 -4 22
-10 0 -5 -25 -10 -55 -10 -30 0 -55 5 -55 10 0 6 10 10 23 10 20 1 20 2 5 11
-11 6 -18 22 -18 39 0 28 2 30 40 30 22 0 40 -4 40 -10z m-130 -220 c0 -56 -3
-70 -15 -70 -12 0 -15 14 -15 70 0 56 3 70 15 70 12 0 15 -14 15 -70z"/>
</g>
</svg>
