<?xml version="1.0" standalone="no"?>
<!DOCTYPE svg PUBLIC "-//W3C//DTD SVG 20010904//EN"
 "http://www.w3.org/TR/2001/REC-SVG-20010904/DTD/svg10.dtd">
<svg version="1.0" xmlns="http://www.w3.org/2000/svg"
 width="72.000000pt" height="100.000000pt" viewBox="0 0 72.000000 100.000000"
 preserveAspectRatio="xMidYMid meet">

<g transform="translate(0.000000,100.000000) scale(0.100000,-0.100000)"
fill="#000000" stroke="none">
<path d="M281 975 c-150 -42 -252 -202 -221 -348 14 -68 36 -109 116 -216 72
-95 110 -168 147 -281 13 -41 30 -75 37 -75 7 0 24 34 37 75 37 113 75 186
148 283 99 131 119 176 119 268 0 63 -5 86 -28 132 -64 131 -216 200 -355 162z
m157 -175 c96 -59 96 -201 0 -260 -43 -26 -113 -26 -156 0 -130 79 -74 280 78
280 27 0 58 -8 78 -20z"/>
</g>
</svg>
