<?xml version="1.0" standalone="no"?>
<!DOCTYPE svg PUBLIC "-//W3C//DTD SVG 20010904//EN"
 "http://www.w3.org/TR/2001/REC-SVG-20010904/DTD/svg10.dtd">
<svg version="1.0" xmlns="http://www.w3.org/2000/svg"
 width="50.000000pt" height="45.000000pt" viewBox="0 0 50.000000 45.000000"
 preserveAspectRatio="xMidYMid meet">

<g transform="translate(0.000000,45.000000) scale(0.100000,-0.100000)"
fill="#000000" stroke="none">
<path d="M134 417 c-2 -7 -3 -100 -2 -207 3 -187 4 -195 23 -195 18 0 20 8 23
74 l3 74 52 -9 c60 -10 244 -10 254 -1 3 4 1 31 -6 61 -10 44 -9 64 2 109 l14
55 -83 -6 c-111 -6 -230 13 -237 39 -6 21 -35 26 -43 6z m36 -11 c0 -8 -7 -16
-15 -20 -10 -4 -15 1 -15 14 0 11 7 20 15 20 8 0 15 -6 15 -14z m124 -92 c9
-3 14 -9 12 -13 -3 -4 -1 -13 5 -21 6 -11 9 -8 9 13 0 28 14 36 24 15 5 -10 7
-10 12 0 11 24 26 12 22 -18 -3 -16 -1 -30 4 -30 4 0 8 14 8 30 0 17 4 30 9
30 14 0 17 -15 13 -65 l-4 -45 -39 0 c-35 0 -39 3 -39 25 0 16 -6 25 -16 25
-12 0 -15 -7 -12 -25 5 -24 3 -25 -40 -25 -42 0 -44 1 -40 25 3 14 2 25 -2 25
-11 0 1 43 14 52 13 9 39 10 60 2z m-124 -224 c0 -56 -3 -70 -15 -70 -12 0
-15 14 -15 70 0 56 3 70 15 70 12 0 15 -14 15 -70z"/>
<path d="M255 280 c-3 -5 1 -10 10 -10 9 0 13 5 10 10 -3 6 -8 10 -10 10 -2 0
-7 -4 -10 -10z"/>
</g>
</svg>
